<svg xmlns="http://www.w3.org/2000/svg" xmlns:xlink="http://www.w3.org/1999/xlink" width="40" height="40" viewBox="0 0 40 40">
  <defs fill="#000000">
    <clipPath id="clip-path" fill="#000000">
      <rect id="Rectangle_347" data-name="Rectangle 347" width="40" height="40" transform="translate(529 1650)" fill="#ffffff"/>
    </clipPath>
    <clipPath id="clip-path-2" fill="#000000">
      <rect id="Rectangle_343" data-name="Rectangle 343" width="32" height="40" transform="translate(0 0)" fill="#ffffff"/>
    </clipPath>
  </defs>
  <g id="Mask_Group_68" data-name="Mask Group 68" transform="translate(-529 -1650)" clip-path="url(#clip-path)">
    <g id="Group_940" data-name="Group 940" transform="translate(532.999 1650)">
      <g id="Group_940-2" data-name="Group 940" transform="translate(0 0)" clip-path="url(#clip-path-2)">
        <path id="Path_703" data-name="Path 703" d="M6.754,0a1.666,1.666,0,0,1-.169.241Q3.416,3.417.241,6.587A1.6,1.6,0,0,1,0,6.754V39.745H29.731V0Zm.428,3.081v4.1h-4.1l4.1-4.1m20.2,34.313H2.348V9.535H9.523V2.352H27.386Z" transform="translate(0.938 0.028)" fill="#ffffff"/>
        <rect id="Rectangle_339" data-name="Rectangle 339" width="15.371" height="2.268" transform="translate(8.114 14.34)" fill="#ffffff"/>
        <rect id="Rectangle_340" data-name="Rectangle 340" width="15.362" height="2.278" transform="translate(8.115 24.366)" fill="#ffffff"/>
        <rect id="Rectangle_341" data-name="Rectangle 341" width="15.366" height="2.28" transform="translate(8.127 29.391)" fill="#ffffff"/>
        <rect id="Rectangle_342" data-name="Rectangle 342" width="15.361" height="2.276" transform="translate(8.124 19.37)" fill="#ffffff"/>
      </g>
    </g>
  </g>
</svg>