<svg xmlns="http://www.w3.org/2000/svg" xmlns:xlink="http://www.w3.org/1999/xlink" width="200" height="34" viewBox="0 0 200 34">
  <defs>
    <clipPath id="clip-path">
      <rect id="Rectangle_44" data-name="Rectangle 44" width="199.855" height="34" fill="#fff"/>
    </clipPath>
  </defs>
  <g id="Group_63" data-name="Group 63" transform="translate(-0.113 -0.189)">
    <path id="Path_130" data-name="Path 130" d="M.1,27.2V50.9H15.709V47.925H3.735V40.08H15.709V37.4H3.735V30.209H15.866V27.2Z" transform="translate(0.017 -16.968)" fill="#fff"/>
    <path id="Path_131" data-name="Path 131" d="M119.2,25.691l11.869,17.193h.066V25.691h3.246v23.7h-2.656L119.623,31.8h-.066V49.389h-3.246v-23.7Z" transform="translate(-72.897 -16.019)" fill="#fff"/>
    <path id="Path_132" data-name="Path 132" d="M199.524,49.389h-3.672l-9.213-23.7h4.033L197.688,45.6h.066l6.984-19.906H208.8Z" transform="translate(-117.022 -16.019)" fill="#fff"/>
    <rect id="Rectangle_42" data-name="Rectangle 42" width="3.607" height="23.697" transform="translate(100.136 9.672)" fill="#fff"/>
    <g id="Group_62" data-name="Group 62" transform="translate(0.257 0.189)">
      <g id="Group_61" data-name="Group 61" transform="translate(0 0)" clip-path="url(#clip-path)">
        <path id="Path_133" data-name="Path 133" d="M319.695,29.453l-2.46,1.209a5.933,5.933,0,0,0-5.606-3.073c-3.41,0-4.688,1.536-4.688,3.4,0,5.23,13.016,3.366,13.016,11.375,0,4.314-3.312,6.8-8.393,6.8-3.935,0-7.41-2.157-8.59-5.361l2.721-1.079a6.227,6.227,0,0,0,5.836,3.628c3.246,0,5.017-1.209,5.017-3.726,0-5.622-13.18-3.334-13.18-11.473,0-3.6,3.016-6.341,7.967-6.341,4,0,7.049,1.864,8.361,4.642" transform="translate(-190.268 -15.655)" fill="#fff"/>
        <rect id="Rectangle_43" data-name="Rectangle 43" width="3.607" height="23.697" transform="translate(139.072 9.483)" fill="#fff"/>
        <path id="Path_134" data-name="Path 134" d="M430.26,33.668v6.6c0,5.393-3.41,8.891-9.509,8.891s-9.508-3.5-9.508-8.891V33.7c0-5.393,3.41-8.891,9.508-8.891s9.509,3.5,9.509,8.858m-3.639.033c0-3.955-1.967-5.982-5.869-5.982s-5.869,2.027-5.869,5.982v6.57c0,3.988,1.967,6.08,5.869,6.08s5.869-2.092,5.869-6.08Z" transform="translate(-258.198 -15.654)" fill="#fff"/>
        <path id="Path_135" data-name="Path 135" d="M491.407,25.691l11.869,17.193h.066V25.691h3.246v23.7h-2.656L491.833,31.8h-.066V49.389h-3.246v-23.7Z" transform="translate(-306.683 -16.208)" fill="#fff"/>
        <path id="Path_136" data-name="Path 136" d="M0,0V7.132H3.353V3.343h27.2V30.83H20.068V33.8H33.906V0Z" transform="translate(-0.18 -0.059)" fill="#fff"/>
      </g>
    </g>
  </g>
</svg>
