<svg xmlns="http://www.w3.org/2000/svg" xmlns:xlink="http://www.w3.org/1999/xlink" width="330" height="399" viewBox="0 0 330 399">
  <defs>
    <clipPath id="clip-path">
      <rect id="Rectangle_369" data-name="Rectangle 369" width="330" height="399" transform="translate(615 3504)" fill="#2e484f" opacity="0.79"/>
    </clipPath>
    <clipPath id="clip-path-2">
      <rect id="Rectangle_367" data-name="Rectangle 367" width="247" height="247" transform="translate(254.631 1265)" fill="#fff" stroke="#707070" stroke-width="1"/>
    </clipPath>
  </defs>
  <g id="Mask_Group_75" data-name="Mask Group 75" transform="translate(-615 -3504)" clip-path="url(#clip-path)">
    <g id="Mask_Group_74" data-name="Mask Group 74" transform="translate(533.369 2139)" opacity="0.17" clip-path="url(#clip-path-2)">
      <g id="Group_1152" data-name="Group 1152" transform="translate(255 1265.474)">
        <g id="Group_1105" data-name="Group 1105" transform="translate(37.584 42.884)">
          <g id="Group_1104" data-name="Group 1104" transform="translate(0 0)">
            <path id="Path_798" data-name="Path 798" d="M210.4,268.311a18.78,18.78,0,0,1-12.863-5.119L82.013,155.466a18.979,18.979,0,0,1,7.394-32.03L240.464,77.254A18.979,18.979,0,0,1,264.5,99.673L228.972,253.582a18.784,18.784,0,0,1-12.943,13.88A19.247,19.247,0,0,1,210.4,268.311ZM82.459,154.989,197.981,262.716a18.325,18.325,0,0,0,30.354-9.28l35.533-153.91A18.325,18.325,0,0,0,240.655,77.88L89.6,124.062a18.325,18.325,0,0,0-7.141,30.927Z" transform="translate(-75.964 -76.405)" fill="#fff"/>
          </g>
        </g>
        <g id="Group_1107" data-name="Group 1107" transform="translate(46.208 68.227)">
          <g id="Group_1106" data-name="Group 1106">
            <path id="Path_799" data-name="Path 799" d="M176.784,276.241c-.228,0-.459,0-.69-.012A18.787,18.787,0,0,1,160,266.172L85.842,126.7h0a18.978,18.978,0,0,1,17.419-27.877l157.862,5.512a18.98,18.98,0,0,1,15.432,29.025L192.85,267.318A18.771,18.771,0,0,1,176.784,276.241ZM102.57,99.468A18.326,18.326,0,0,0,86.418,126.4h0l74.156,139.467a18.325,18.325,0,0,0,31.721,1.108L276,133.017a18.326,18.326,0,0,0-14.9-28.025L103.237,99.479Q102.9,99.467,102.57,99.468Z" transform="translate(-83.589 -98.815)" fill="#fff"/>
          </g>
        </g>
        <g id="Group_1109" data-name="Group 1109" transform="translate(61.19 51.292)">
          <g id="Group_1108" data-name="Group 1108">
            <path id="Path_800" data-name="Path 800" d="M140.6,277.861a19.135,19.135,0,0,1-6.862-1.286,18.787,18.787,0,0,1-11.945-14.749L97.079,105.812a18.978,18.978,0,0,1,25.546-20.687l147.467,56.607a18.979,18.979,0,0,1,5.142,32.467L152.478,273.607A18.827,18.827,0,0,1,140.6,277.861ZM115.765,84.495a18.365,18.365,0,0,0-18.039,21.216l24.709,156.012A18.325,18.325,0,0,0,152.067,273.1l122.756-99.406a18.325,18.325,0,0,0-4.965-31.349L122.392,85.735A18.478,18.478,0,0,0,115.765,84.495Z" transform="translate(-96.837 -83.84)" fill="#fff"/>
          </g>
        </g>
        <g id="Group_1111" data-name="Group 1111" transform="translate(53.411 40.175)">
          <g id="Group_1110" data-name="Group 1110">
            <path id="Path_801" data-name="Path 801" d="M108.879,267.573a19.019,19.019,0,0,1-18.623-22.3L117.686,89.717a18.978,18.978,0,0,1,30.889-11.242l121,101.533a18.979,18.979,0,0,1-5.709,32.372L115.437,266.4A19.152,19.152,0,0,1,108.879,267.573ZM136.441,74.665a18.482,18.482,0,0,0-6.333,1.129A18.138,18.138,0,0,0,118.329,89.83L90.9,245.389a18.325,18.325,0,0,0,24.315,20.4l148.431-54.025a18.325,18.325,0,0,0,5.512-31.258l-121-101.533A18.16,18.16,0,0,0,136.441,74.665Z" transform="translate(-89.959 -74.01)" fill="#fff"/>
          </g>
        </g>
        <g id="Group_1113" data-name="Group 1113" transform="translate(26.44 36.085)">
          <g id="Group_1112" data-name="Group 1112" transform="translate(0 0)">
            <path id="Path_802" data-name="Path 802" d="M85.1,246.5a18.979,18.979,0,0,1-16.584-28.18L145.1,80.171l.286.158-.286-.158a18.978,18.978,0,0,1,32.867-.573l81.354,135.4a18.978,18.978,0,0,1-15.937,28.75L85.45,246.5C85.334,246.5,85.218,246.5,85.1,246.5Zm76.61-175.457c-.112,0-.223,0-.335,0a18.137,18.137,0,0,0-15.707,9.437L69.091,218.641a18.324,18.324,0,0,0,16.346,27.206l157.934-2.756a18.325,18.325,0,0,0,15.388-27.76l-81.354-135.4A18.132,18.132,0,0,0,161.713,71.047Z" transform="translate(-66.109 -70.394)" fill="#fff"/>
          </g>
        </g>
        <g id="Group_1115" data-name="Group 1115" transform="translate(7.981 39.401)">
          <g id="Group_1114" data-name="Group 1114" transform="translate(0 0)">
            <path id="Path_803" data-name="Path 803" d="M219.082,265.832a19.216,19.216,0,0,1-5.942-.951L62.913,216.07a18.979,18.979,0,0,1-6.834-32.154L173.464,78.222l.219.242-.219-.242A18.979,18.979,0,0,1,204.729,88.38l32.841,154.506a19.014,19.014,0,0,1-18.487,22.946ZM186.09,73.98A18.144,18.144,0,0,0,173.9,78.707L56.517,184.4a18.325,18.325,0,0,0,6.6,31.046L213.343,264.26a18.325,18.325,0,0,0,23.587-21.239L204.088,88.515A18.136,18.136,0,0,0,191.827,74.9,18.534,18.534,0,0,0,186.09,73.98Z" transform="translate(-49.787 -73.325)" fill="#fff"/>
          </g>
        </g>
        <g id="Group_1117" data-name="Group 1117" transform="translate(0 49.821)">
          <g id="Group_1116" data-name="Group 1116">
            <path id="Path_804" data-name="Path 804" d="M187.814,277.33a18.838,18.838,0,0,1-11.371-3.849L50.292,178.42A18.978,18.978,0,0,1,54.3,145.794L199.7,84.075a18.977,18.977,0,0,1,26.252,19.783L206.7,260.638a18.785,18.785,0,0,1-11.421,15.156A19.077,19.077,0,0,1,187.814,277.33ZM199.827,84.376l.128.3-145.4,61.718a18.325,18.325,0,0,0-3.868,31.5l126.15,95.061a18.325,18.325,0,0,0,29.217-12.4l19.25-156.78a18.325,18.325,0,0,0-25.348-19.1Z" transform="translate(-42.73 -82.539)" fill="#fff"/>
          </g>
        </g>
        <g id="Group_1119" data-name="Group 1119" transform="translate(3.346 66.223)">
          <g id="Group_1118" data-name="Group 1118" transform="translate(0 0)">
            <path id="Path_805" data-name="Path 805" d="M152.973,276.975a18.76,18.76,0,0,1-15.682-8.369L48.962,137.654a18.978,18.978,0,0,1,14.41-29.545L220.945,97.091a18.979,18.979,0,0,1,18.382,27.252L170.082,266.314a18.783,18.783,0,0,1-15.733,10.612Q153.657,276.976,152.973,276.975ZM220.968,97.416l.023.326L63.418,108.762A18.325,18.325,0,0,0,49.5,137.289l88.329,130.953a18.325,18.325,0,0,0,31.663-2.213l69.243-141.972A18.325,18.325,0,0,0,220.99,97.742Z" transform="translate(-45.688 -97.042)" fill="#fff"/>
          </g>
        </g>
        <g id="Group_1121" data-name="Group 1121" transform="translate(17.718 45.87)">
          <g id="Group_1120" data-name="Group 1120" transform="translate(0 0)">
            <path id="Path_806" data-name="Path 806" d="M118.361,269.612a19.3,19.3,0,0,1-5-.664,18.787,18.787,0,0,1-13.421-13.419L59.061,102.953A18.978,18.978,0,0,1,82.306,79.71L234.88,120.592a18.978,18.978,0,0,1,8.508,31.751L131.695,264.037A18.77,18.77,0,0,1,118.361,269.612ZM77.309,79.7a18.35,18.35,0,0,0-17.617,23.084L100.574,255.36a18.325,18.325,0,0,0,30.658,8.215L242.925,151.881a18.323,18.323,0,0,0-8.215-30.658L82.135,80.341A18.6,18.6,0,0,0,77.309,79.7Z" transform="translate(-58.397 -79.046)" fill="#fff"/>
          </g>
        </g>
        <g id="Group_1123" data-name="Group 1123" transform="translate(30.501 20.886)">
          <g id="Group_1122" data-name="Group 1122" transform="translate(0 0)">
            <path id="Path_807" data-name="Path 807" d="M88.651,252.542a19.037,19.037,0,0,1-18.9-20.332L80.767,74.637a18.979,18.979,0,0,1,29.545-14.41l130.953,88.329a18.978,18.978,0,0,1-2.293,32.792L97,250.592A19.016,19.016,0,0,1,88.651,252.542ZM99.728,57.608a18.356,18.356,0,0,0-8.062,1.883A18.14,18.14,0,0,0,81.418,74.682L70.4,232.255A18.325,18.325,0,0,0,96.714,250L238.685,180.76A18.326,18.326,0,0,0,240.9,149.1L109.947,60.769A18.227,18.227,0,0,0,99.728,57.608Z" transform="translate(-69.7 -56.953)" fill="#fff"/>
          </g>
        </g>
        <g id="Group_1125" data-name="Group 1125" transform="translate(10.396 5.041)">
          <g id="Group_1124" data-name="Group 1124" transform="translate(0 0)">
            <path id="Path_808" data-name="Path 808" d="M70.854,226.312a18.985,18.985,0,0,1-17.4-26.4l61.719-145.4A18.979,18.979,0,0,1,147.8,50.505l95.061,126.151a18.979,18.979,0,0,1-12.845,30.259l-156.78,19.25A19.543,19.543,0,0,1,70.854,226.312ZM132.72,43.6a19.12,19.12,0,0,0-2.3.141,18.14,18.14,0,0,0-14.636,11.029l-61.719,145.4a18.325,18.325,0,0,0,19.1,25.348l156.78-19.25a18.323,18.323,0,0,0,12.4-29.216L147.283,50.9A18.11,18.11,0,0,0,132.72,43.6Z" transform="translate(-51.923 -42.943)" fill="#fff"/>
          </g>
        </g>
        <g id="Group_1127" data-name="Group 1127" transform="translate(0.545)">
          <g id="Group_1126" data-name="Group 1126" transform="translate(0)">
            <path id="Path_809" data-name="Path 809" d="M216.807,226.694a19.354,19.354,0,0,1-4.034-.427L58.267,193.425a18.977,18.977,0,0,1-10.158-31.262L153.8,44.777a18.979,18.979,0,0,1,32.154,6.834l48.811,150.227a19,19,0,0,1-17.961,24.856ZM167.82,39.139a18.115,18.115,0,0,0-13.532,6.076L48.594,162.6A18.325,18.325,0,0,0,58.4,192.786l154.506,32.842a18.324,18.324,0,0,0,21.238-23.587L185.335,51.814a18.138,18.138,0,0,0-13.618-12.262A18.793,18.793,0,0,0,167.82,39.139Z" transform="translate(-43.212 -38.485)" fill="#fff"/>
          </g>
        </g>
        <g id="Group_1129" data-name="Group 1129" transform="translate(2.007 6.331)">
          <g id="Group_1128" data-name="Group 1128">
            <path id="Path_810" data-name="Path 810" d="M198.872,240.035a18.925,18.925,0,0,1-9.768-2.741l-135.4-81.354a18.978,18.978,0,0,1,.573-32.867l138.153-76.58a18.979,18.979,0,0,1,28.177,16.93l-2.756,157.934a19.055,19.055,0,0,1-18.983,18.678Zm2.772-195.3a18.306,18.306,0,0,0-8.892,2.326L54.6,123.644a18.326,18.326,0,0,0-.553,31.736l135.4,81.354a18.326,18.326,0,0,0,27.76-15.388l.327.006-.327-.006,2.756-157.934a18.39,18.39,0,0,0-18.314-18.674Z" transform="translate(-44.504 -44.083)" fill="#fff"/>
          </g>
        </g>
        <g id="Group_1131" data-name="Group 1131" transform="translate(14.563 23.39)">
          <g id="Group_1130" data-name="Group 1130">
            <path id="Path_811" data-name="Path 811" d="M176.057,245.576a18.751,18.751,0,0,1-14.452-6.79l-101.533-121a18.979,18.979,0,0,1,11.242-30.89L226.872,59.465A18.978,18.978,0,0,1,248,84.646L193.977,233.078a18.785,18.785,0,0,1-14.539,12.2A19.541,19.541,0,0,1,176.057,245.576ZM230.251,59.822a18.756,18.756,0,0,0-3.265.287L71.428,87.538a18.326,18.326,0,0,0-10.857,29.825l101.533,121a18.326,18.326,0,0,0,31.258-5.511l.308.111-.308-.111L247.388,84.424a18.337,18.337,0,0,0-17.137-24.6Z" transform="translate(-55.608 -59.167)" fill="#fff"/>
          </g>
        </g>
        <g id="Group_1133" data-name="Group 1133" transform="translate(36.911 24.554)">
          <g id="Group_1132" data-name="Group 1132">
            <path id="Path_812" data-name="Path 812" d="M151.063,245.636a19.549,19.549,0,0,1-3.052-.241,18.785,18.785,0,0,1-14.749-11.944L76.655,85.985A18.979,18.979,0,0,1,97.342,60.438l156.012,24.71a18.979,18.979,0,0,1,11.781,30.688L165.729,238.594l-.254-.206.254.206A18.756,18.756,0,0,1,151.063,245.636ZM94.291,60.851a18.335,18.335,0,0,0-17.027,24.9l56.607,147.466a18.325,18.325,0,0,0,31.349,4.965l99.407-122.756a18.325,18.325,0,0,0-11.375-29.632L97.239,61.084A18.883,18.883,0,0,0,94.291,60.851Z" transform="translate(-75.369 -60.197)" fill="#fff"/>
          </g>
        </g>
        <g id="Group_1135" data-name="Group 1135" transform="translate(66.619 6.972)">
          <g id="Group_1134" data-name="Group 1134">
            <path id="Path_813" data-name="Path 813" d="M126.145,240.529a19.057,19.057,0,0,1-18.982-18.347L101.649,64.321A18.979,18.979,0,0,1,129.526,46.9l139.468,74.157a18.979,18.979,0,0,1,1.148,32.852L136.186,237.616A18.914,18.914,0,0,1,126.145,240.529ZM120.6,45.3A18.389,18.389,0,0,0,102.3,64.3l5.513,157.863a18.324,18.324,0,0,0,28.024,14.9l.173.278-.173-.278,133.956-83.7a18.326,18.326,0,0,0-1.107-31.721L129.22,47.479A18.319,18.319,0,0,0,120.6,45.3Z" transform="translate(-101.637 -44.65)" fill="#fff"/>
          </g>
        </g>
        <g id="Group_1137" data-name="Group 1137" transform="translate(54.2 0.049)">
          <g id="Group_1136" data-name="Group 1136" transform="translate(0 0)">
            <path id="Path_814" data-name="Path 814" d="M109.566,227.571a19,19,0,0,1-18.061-24.542L137.688,51.973a18.978,18.978,0,0,1,32.029-7.4L277.444,160.1a18.978,18.978,0,0,1-9.61,31.435L113.923,227.07l-.072-.319.072.319A19.36,19.36,0,0,1,109.566,227.571ZM155.923,39.183a18.691,18.691,0,0,0-4.208.484,18.136,18.136,0,0,0-13.4,12.5L92.131,203.22a18.325,18.325,0,0,0,21.647,23.213L267.686,190.9a18.324,18.324,0,0,0,9.28-30.352L169.24,45.024A18.118,18.118,0,0,0,155.923,39.183Z" transform="translate(-90.656 -38.529)" fill="#fff"/>
          </g>
        </g>
        <g id="Group_1139" data-name="Group 1139" transform="translate(41.731 4.498)">
          <g id="Group_1138" data-name="Group 1138" transform="translate(0 0)">
            <path id="Path_815" data-name="Path 815" d="M255.8,224.73a19.647,19.647,0,0,1-2.053-.109L96.652,208.11a18.978,18.978,0,0,1-13.37-30.029L176.128,50.29a18.978,18.978,0,0,1,32.691,3.436l64.248,144.3a18.985,18.985,0,0,1-17.27,26.7ZM191.416,43.116a18.111,18.111,0,0,0-14.76,7.558L83.811,178.464a18.325,18.325,0,0,0,12.91,29l157.092,16.511a18.323,18.323,0,0,0,18.655-25.677l-64.247-144.3A18.136,18.136,0,0,0,193.4,43.221,18.868,18.868,0,0,0,191.416,43.116Z" transform="translate(-79.63 -42.463)" fill="#fff"/>
          </g>
        </g>
        <g id="Group_1141" data-name="Group 1141" transform="translate(36.103 19.804)">
          <g id="Group_1140" data-name="Group 1140" transform="translate(0 0)">
            <path id="Path_816" data-name="Path 816" d="M236.83,251.369a19.038,19.038,0,0,1-8.057-1.807L85.615,182.806a18.979,18.979,0,0,1-2.866-32.748l129.392-90.6A18.979,18.979,0,0,1,241.933,73.35L255.7,230.707a19.038,19.038,0,0,1-18.87,20.662ZM222.991,56.652a18.21,18.21,0,0,0-10.476,3.342l-129.391,90.6a18.325,18.325,0,0,0,2.766,31.619l143.159,66.755a18.325,18.325,0,0,0,26-18.205L241.282,73.407A18.141,18.141,0,0,0,230.772,58.4,18.391,18.391,0,0,0,222.991,56.652Z" transform="translate(-74.653 -55.997)" fill="#fff"/>
          </g>
        </g>
        <g id="Group_1143" data-name="Group 1143" transform="translate(37.861 44.368)">
          <g id="Group_1142" data-name="Group 1142">
            <path id="Path_817" data-name="Path 817" d="M208.745,268.978a18.773,18.773,0,0,1-13.1-5.346L82.02,153.905a18.978,18.978,0,0,1,7.953-31.9L241.811,78.471a18.979,18.979,0,0,1,23.646,22.834L227.243,254.571a18.786,18.786,0,0,1-13.184,13.652A19.245,19.245,0,0,1,208.745,268.978ZM247.122,78.372a18.608,18.608,0,0,0-5.132.727L90.152,122.638a18.326,18.326,0,0,0-7.679,30.8L196.1,263.162a18.325,18.325,0,0,0,30.51-8.749l38.213-153.266a18.351,18.351,0,0,0-17.7-22.777Z" transform="translate(-76.209 -77.718)" fill="#fff"/>
          </g>
        </g>
        <g id="Group_1145" data-name="Group 1145" transform="translate(46.85 67.219)">
          <g id="Group_1144" data-name="Group 1144" transform="translate(0 0)">
            <path id="Path_818" data-name="Path 818" d="M174.918,276.624q-.516,0-1.035-.027a18.783,18.783,0,0,1-15.916-10.335L86.255,125.52a18.979,18.979,0,0,1,17.9-27.569L261.9,106.217a18.979,18.979,0,0,1,14.923,29.289L190.793,267.981A18.765,18.765,0,0,1,174.918,276.624Zm-88.081-151.4,71.712,140.742a18.325,18.325,0,0,0,31.7,1.661L276.276,135.15a18.325,18.325,0,0,0-14.41-28.281L104.124,98.6a18.324,18.324,0,0,0-17.287,26.618Z" transform="translate(-84.157 -97.923)" fill="#fff"/>
          </g>
        </g>
        <g id="Group_1147" data-name="Group 1147" transform="translate(62.126 50.548)">
          <g id="Group_1146" data-name="Group 1146" transform="translate(0)">
            <path id="Path_819" data-name="Path 819" d="M138.69,277.613a19.1,19.1,0,0,1-7.165-1.409,18.781,18.781,0,0,1-11.685-14.955L97.856,104.828a18.98,18.98,0,0,1,25.9-20.238l146.455,59.173a18.978,18.978,0,0,1,4.575,32.552L150.318,273.563A18.824,18.824,0,0,1,138.69,277.613ZM98.5,104.737l21.984,156.421a18.326,18.326,0,0,0,29.43,11.89L274.389,175.8a18.325,18.325,0,0,0-4.418-31.43L123.515,85.2A18.326,18.326,0,0,0,98.5,104.737Z" transform="translate(-97.665 -83.182)" fill="#fff"/>
          </g>
        </g>
        <g id="Group_1149" data-name="Group 1149" transform="translate(51.824 39.778)">
          <g id="Group_1148" data-name="Group 1148" transform="translate(0)">
            <path id="Path_820" data-name="Path 820" d="M107.473,266.718A19.017,19.017,0,0,1,88.915,244.1l30.14-155.056a18.979,18.979,0,0,1,31.081-10.7l119.213,103.63a18.978,18.978,0,0,1-6.272,32.268L113.723,265.66A19.183,19.183,0,0,1,107.473,266.718ZM119.376,89.1l.321.062L89.557,244.22a18.325,18.325,0,0,0,23.954,20.823l149.351-51.426a18.326,18.326,0,0,0,6.057-31.158L149.707,78.831A18.324,18.324,0,0,0,119.7,89.164Z" transform="translate(-88.555 -73.659)" fill="#fff"/>
          </g>
        </g>
        <g id="Group_1151" data-name="Group 1151" transform="translate(25.234 36.075)">
          <g id="Group_1150" data-name="Group 1150" transform="translate(0 0)">
            <path id="Path_821" data-name="Path 821" d="M242.01,245.137H84.052a18.979,18.979,0,0,1-16.436-28.468L146.6,79.873a18.786,18.786,0,0,1,16.436-9.489h0a18.783,18.783,0,0,1,16.434,9.489l78.979,136.795a18.979,18.979,0,0,1-16.436,28.468ZM147.161,80.2,68.182,217a18.325,18.325,0,0,0,15.87,27.488H242.01A18.325,18.325,0,0,0,257.88,217L178.9,80.2a18.325,18.325,0,0,0-31.74,0Z" transform="translate(-65.044 -70.384)" fill="#fff"/>
          </g>
        </g>
      </g>
    </g>
  </g>
</svg>
