<svg xmlns="http://www.w3.org/2000/svg" xmlns:xlink="http://www.w3.org/1999/xlink" width="80" height="80" viewBox="0 0 80 80">
  <defs>
    <clipPath id="clip-path">
      <rect id="Rectangle_351" data-name="Rectangle 351" width="80" height="80" transform="translate(255 1265)" fill="#fff" stroke="#707070" stroke-width="1"/>
    </clipPath>
    <linearGradient id="linear-gradient" y1="0.5" x2="1" y2="0.5" gradientUnits="objectBoundingBox">
      <stop offset="0" stop-color="#8fc232"/>
      <stop offset="0.999" stop-color="#2e484f"/>
      <stop offset="1" stop-color="#b6fbff"/>
    </linearGradient>
  </defs>
  <g id="Mask_Group_71" data-name="Mask Group 71" transform="translate(-255 -1265)" clip-path="url(#clip-path)">
    <g id="Group_991" data-name="Group 991" transform="translate(255.806 1266.611)">
      <g id="Group_950" data-name="Group 950" transform="translate(20.467 23.452)">
        <g id="Group_949" data-name="Group 949" transform="translate(0)">
          <path id="Path_727" data-name="Path 727" d="M125.479,391.061a24.177,24.177,0,0,1-12.955-3.89c-4.943-3.183-8.225-7.78-9.006-12.614a11.891,11.891,0,0,1,2.449-9.617c5.263-6.53,16.768-7.193,25.646-1.476,4.943,3.183,8.225,7.78,9.006,12.614a11.892,11.892,0,0,1-2.449,9.617C135.308,389.245,130.6,391.061,125.479,391.061Zm-6.823-31.345c-5.082,0-9.744,1.8-12.578,5.314a11.752,11.752,0,0,0-2.42,9.5c.774,4.794,4.034,9.356,8.942,12.517,8.818,5.678,20.238,5.03,25.458-1.446a11.755,11.755,0,0,0,2.42-9.5c-.774-4.793-4.034-9.356-8.943-12.516A24.044,24.044,0,0,0,118.656,359.716Z" transform="translate(-103.341 -359.576)" fill="url(#linear-gradient)"/>
        </g>
      </g>
      <g id="Group_952" data-name="Group 952" transform="translate(20.036 22.658)">
        <g id="Group_951" data-name="Group 951" transform="translate(0 0)">
          <path id="Path_728" data-name="Path 728" d="M123.377,390.6a22.9,22.9,0,0,1-9.1-1.913,20.191,20.191,0,0,1-11.1-11.159,14.15,14.15,0,0,1,.416-11.193c3.922-8.061,15.092-11.153,24.9-6.894a20.192,20.192,0,0,1,11.1,11.159,14.15,14.15,0,0,1-.417,11.193C136.448,387.394,130.218,390.6,123.377,390.6Zm-19.714-24.233.067.033a14,14,0,0,0-.411,11.076,20.043,20.043,0,0,0,11.015,11.075c9.736,4.229,20.82,1.168,24.707-6.822a14,14,0,0,0,.411-11.076,20.042,20.042,0,0,0-11.015-11.075c-9.736-4.228-20.82-1.168-24.707,6.823Z" transform="translate(-102.227 -357.524)" fill="url(#linear-gradient)"/>
        </g>
      </g>
      <g id="Group_954" data-name="Group 954" transform="translate(19.793 21.522)">
        <g id="Group_953" data-name="Group 953" transform="translate(0 0)">
          <path id="Path_729" data-name="Path 729" d="M121.828,389.93a21.457,21.457,0,0,1-5.02-.6,20.423,20.423,0,0,1-12.681-9.021A16.537,16.537,0,0,1,102.06,367.7l.075.019-.075-.019c2.311-9.414,12.689-15.03,23.132-12.518a20.424,20.424,0,0,1,12.681,9.021,16.54,16.54,0,0,1,2.068,12.608C138,384.706,130.392,389.93,121.828,389.93Zm-1.656-35.191c-8.5,0-16.041,5.176-17.962,13a16.385,16.385,0,0,0,2.049,12.491,20.267,20.267,0,0,0,12.585,8.951c10.36,2.491,20.655-3.073,22.946-12.4a16.388,16.388,0,0,0-2.049-12.491,20.267,20.267,0,0,0-12.585-8.951A21.317,21.317,0,0,0,120.172,354.739Z" transform="translate(-101.599 -354.585)" fill="url(#linear-gradient)"/>
        </g>
      </g>
      <g id="Group_956" data-name="Group 956" transform="translate(19.71 20.088)">
        <g id="Group_955" data-name="Group 955" transform="translate(0 0)">
          <path id="Path_730" data-name="Path 730" d="M120.987,389.09q-.487,0-.976-.023A19.388,19.388,0,0,1,101.4,369.052a18.745,18.745,0,0,1,6.164-13.091,19.6,19.6,0,0,1,32.766,14.955,18.747,18.747,0,0,1-6.164,13.091A19.445,19.445,0,0,1,120.987,389.09Zm-.237-38.052a19.284,19.284,0,0,0-13.075,5.042,18.588,18.588,0,0,0-6.111,12.98,19.439,19.439,0,0,0,32.5,14.828,18.586,18.586,0,0,0,6.112-12.98,19.227,19.227,0,0,0-18.455-19.847Q121.233,351.038,120.75,351.038Z" transform="translate(-101.384 -350.877)" fill="url(#linear-gradient)"/>
        </g>
      </g>
      <g id="Group_958" data-name="Group 958" transform="translate(19.702 18.432)">
        <g id="Group_957" data-name="Group 957" transform="translate(0 0)">
          <path id="Path_731" data-name="Path 731" d="M120.775,388.12a18.549,18.549,0,0,1-11.106-3.727,20.711,20.711,0,0,1-8.1-13.994c-1.544-11.323,5.853-21.9,16.487-23.578a18.463,18.463,0,0,1,13.987,3.5,20.711,20.711,0,0,1,8.1,13.994c1.543,11.323-5.853,21.9-16.488,23.577A18.5,18.5,0,0,1,120.775,388.12Zm.16-41.357a18.35,18.35,0,0,0-2.855.225c-10.545,1.664-17.879,12.156-16.347,23.389a20.546,20.546,0,0,0,8.036,13.882,18.3,18.3,0,0,0,13.861,3.469c10.545-1.664,17.878-12.156,16.347-23.389a20.546,20.546,0,0,0-8.037-13.882A18.383,18.383,0,0,0,120.936,346.763Z" transform="translate(-101.363 -346.595)" fill="url(#linear-gradient)"/>
        </g>
      </g>
      <g id="Group_960" data-name="Group 960" transform="translate(19.663 16.668)">
        <g id="Group_959" data-name="Group 959">
          <path id="Path_732" data-name="Path 732" d="M121.2,387.086a17.473,17.473,0,0,1-7.552-1.741A22.117,22.117,0,0,1,102.436,371.8c-3.674-11.757,1.568-24.573,11.686-28.569a17.133,17.133,0,0,1,13.819.541,22.118,22.118,0,0,1,11.211,13.542c3.674,11.757-1.568,24.573-11.687,28.569A17.025,17.025,0,0,1,121.2,387.086Zm-.81-44.877a16.845,16.845,0,0,0-6.2,1.188c-10.035,3.962-15.231,16.682-11.584,28.354a21.943,21.943,0,0,0,11.119,13.437,16.959,16.959,0,0,0,13.679.536c10.035-3.963,15.231-16.682,11.584-28.354a21.944,21.944,0,0,0-11.119-13.437A17.309,17.309,0,0,0,120.388,342.209Z" transform="translate(-101.262 -342.033)" fill="url(#linear-gradient)"/>
        </g>
      </g>
      <g id="Group_962" data-name="Group 962" transform="translate(19.461 14.909)">
        <g id="Group_961" data-name="Group 961">
          <path id="Path_733" data-name="Path 733" d="M121.905,386.055a16.407,16.407,0,0,1-4.094-.524c-5.762-1.481-10.858-5.939-13.981-12.23-5.848-11.779-3.147-26.536,6.021-32.9a16,16,0,0,1,13.285-2.4c5.762,1.482,10.858,5.94,13.981,12.23,5.848,11.779,3.147,26.536-6.02,32.9A16.033,16.033,0,0,1,121.905,386.055ZM103.994,373.22c3.1,6.243,8.153,10.666,13.863,12.134a15.818,15.818,0,0,0,13.136-2.368c9.1-6.311,11.771-20.964,5.961-32.665-3.1-6.243-8.153-10.666-13.863-12.134a15.816,15.816,0,0,0-13.136,2.368C100.858,346.865,98.185,361.519,103.994,373.22Z" transform="translate(-100.741 -337.485)" fill="url(#linear-gradient)"/>
        </g>
      </g>
      <g id="Group_964" data-name="Group 964" transform="translate(18.953 13.261)">
        <g id="Group_963" data-name="Group 963" transform="translate(0 0)">
          <path id="Path_734" data-name="Path 734" d="M122.6,385.089q-.455,0-.913-.027c-5.976-.352-11.866-4.054-16.16-10.157-7.986-11.351-8.15-27.652-.367-36.338a15.348,15.348,0,0,1,12.494-5.319c5.976.352,11.866,4.054,16.16,10.157,7.986,11.351,8.15,27.652.367,36.338A15.4,15.4,0,0,1,122.6,385.089Zm-5.86-51.677a15.212,15.212,0,0,0-11.439,5.282c-7.728,8.623-7.557,24.818.381,36.1,4.26,6.056,10.1,9.728,16.015,10.077a15.165,15.165,0,0,0,12.34-5.255c7.728-8.623,7.557-24.818-.381-36.1-4.26-6.056-10.1-9.728-16.015-10.077Q117.187,333.412,116.738,333.412Z" transform="translate(-99.426 -333.222)" fill="url(#linear-gradient)"/>
        </g>
      </g>
      <g id="Group_966" data-name="Group 966" transform="translate(18.026 11.818)">
        <g id="Group_965" data-name="Group 965" transform="translate(0 0)">
          <path id="Path_735" data-name="Path 735" d="M122.94,384.244c-5.313,0-10.906-2.712-15.626-7.644-10-10.453-13.274-27.807-7.293-38.684,2.6-4.722,6.666-7.668,11.461-8.3,5.877-.77,12.291,1.969,17.6,7.517,10,10.453,13.274,27.807,7.293,38.684-2.6,4.721-6.667,7.668-11.462,8.3A15.172,15.172,0,0,1,122.94,384.244Zm-9.484-54.554a14.984,14.984,0,0,0-1.948.126c-4.731.62-8.749,3.53-11.313,8.195-5.942,10.807-2.684,28.056,7.263,38.451,5.264,5.5,11.617,8.219,17.43,7.457,4.73-.62,8.749-3.53,11.313-8.195,5.942-10.807,2.684-28.056-7.263-38.451C124.257,332.381,118.714,329.69,113.456,329.69Z" transform="translate(-97.03 -329.492)" fill="url(#linear-gradient)"/>
        </g>
      </g>
      <g id="Group_968" data-name="Group 968" transform="translate(16.65 10.653)">
        <g id="Group_967" data-name="Group 967" transform="translate(0 0)">
          <path id="Path_736" data-name="Path 736" d="M122.758,383.561c-4.416,0-9.2-1.8-13.667-5.236-11.812-9.077-18.334-26.911-14.54-39.753,1.706-5.774,5.3-9.817,10.121-11.383,5.529-1.8,12.187-.146,18.267,4.527,11.812,9.078,18.334,26.911,14.539,39.753-1.706,5.774-5.3,9.817-10.121,11.383A14.845,14.845,0,0,1,122.758,383.561Zm-13.485-56.875a14.636,14.636,0,0,0-4.537.7c-4.754,1.545-8.3,5.538-9.987,11.245-3.772,12.767,2.718,30.5,14.467,39.53,6.025,4.631,12.614,6.269,18.078,4.494,4.754-1.545,8.3-5.538,9.986-11.245,3.773-12.767-2.718-30.5-14.467-39.53C118.38,328.473,113.643,326.686,109.273,326.686Z" transform="translate(-93.471 -326.479)" fill="url(#linear-gradient)"/>
        </g>
      </g>
      <g id="Group_970" data-name="Group 970" transform="translate(14.87 9.777)">
        <g id="Group_969" data-name="Group 969" transform="translate(0 0)">
          <path id="Path_737" data-name="Path 737" d="M121.884,383.048a23.384,23.384,0,0,1-11.047-3.121c-13.326-7.235-23.131-24.907-21.857-39.393.6-6.829,3.568-12.006,8.356-14.578,5.081-2.729,11.549-2.239,18.213,1.379,13.326,7.235,23.131,24.907,21.857,39.394-.6,6.829-3.568,12.006-8.355,14.578A14.989,14.989,0,0,1,121.884,383.048ZM104.5,324.43a14.768,14.768,0,0,0-7.064,1.716c-4.722,2.535-7.649,7.652-8.243,14.406-1.267,14.409,8.488,31.987,21.745,39.185,6.6,3.582,12.993,4.072,18.008,1.379,4.722-2.535,7.648-7.652,8.243-14.407,1.267-14.409-8.488-31.987-21.745-39.185A23.178,23.178,0,0,0,104.5,324.43Z" transform="translate(-88.868 -324.214)" fill="url(#linear-gradient)"/>
        </g>
      </g>
      <g id="Group_972" data-name="Group 972" transform="translate(12.776 9.257)">
        <g id="Group_971" data-name="Group 971" transform="translate(0 0)">
          <path id="Path_738" data-name="Path 738" d="M120.371,382.742a24.154,24.154,0,0,1-7.8-1.4C98.109,376.389,85.112,359.569,83.6,343.85c-.752-7.809,1.394-14.131,6.042-17.8,4.438-3.5,10.663-4.139,17.528-1.786,14.462,4.956,27.459,21.776,28.973,37.495.752,7.809-1.394,14.131-6.042,17.8A15.393,15.393,0,0,1,120.371,382.742Zm-21-59.651a15.169,15.169,0,0,0-9.59,3.134c-4.586,3.621-6.7,9.872-5.957,17.6,1.505,15.639,14.435,32.374,28.821,37.3,6.79,2.327,12.94,1.706,17.317-1.749,4.585-3.621,6.7-9.872,5.957-17.6-1.506-15.639-14.435-32.374-28.822-37.3A23.932,23.932,0,0,0,99.37,323.092Z" transform="translate(-83.451 -322.867)" fill="url(#linear-gradient)"/>
        </g>
      </g>
      <g id="Group_974" data-name="Group 974" transform="translate(10.515 9.018)">
        <g id="Group_973" data-name="Group 973" transform="translate(0 0)">
          <path id="Path_739" data-name="Path 739" d="M118.107,382.6a24.936,24.936,0,0,1-3.728-.289c-15.144-2.289-31.114-17.54-35.6-34-2.311-8.48-1.186-16.1,3.086-20.894,3.72-4.178,9.517-5.913,16.322-4.884,15.144,2.289,31.114,17.54,35.6,34,2.31,8.48,1.186,16.1-3.086,20.894C127.681,380.821,123.293,382.6,118.107,382.6ZM94.463,322.484c-5.119,0-9.447,1.754-12.42,5.095-4.218,4.738-5.324,12.275-3.035,20.676,4.462,16.375,20.346,31.55,35.407,33.826,6.725,1.016,12.446-.691,16.112-4.808,4.218-4.739,5.324-12.275,3.034-20.677-4.462-16.375-20.345-31.55-35.406-33.826A24.709,24.709,0,0,0,94.463,322.484Z" transform="translate(-77.604 -322.25)" fill="url(#linear-gradient)"/>
        </g>
      </g>
      <g id="Group_976" data-name="Group 976" transform="translate(8.209 8.962)">
        <g id="Group_975" data-name="Group 975">
          <path id="Path_740" data-name="Path 740" d="M115.086,382.57c-15.067,0-32.9-12.718-40.246-28.918-4.062-8.956-4.263-17.567-.55-23.626,2.936-4.792,8.152-7.595,14.688-7.893,15.3-.7,33.9,12.262,41.437,28.891,4.062,8.956,4.263,17.567.55,23.626-2.935,4.792-8.151,7.595-14.688,7.893Q115.685,382.57,115.086,382.57Zm1.181-.271.006.122-.006-.122c6.453-.295,11.6-3.056,14.491-7.776,3.669-5.989,3.464-14.517-.564-23.4-7.5-16.546-25.985-29.443-41.2-28.748-6.452.295-11.6,3.056-14.491,7.776-3.669,5.989-3.464,14.517.565,23.4C82.567,370.1,101.052,382.995,116.267,382.3Z" transform="translate(-71.643 -322.106)" fill="url(#linear-gradient)"/>
        </g>
      </g>
      <g id="Group_978" data-name="Group 978" transform="translate(6.022 8.95)">
        <g id="Group_977" data-name="Group 977" transform="translate(0 0)">
          <path id="Path_741" data-name="Path 741" d="M111.425,382.563c-13.873,0-30.276-9.285-39.3-23.087-5.884-9-7.642-18.369-4.822-25.7,2.1-5.466,6.49-9.217,12.689-10.849,14.9-3.922,35.621,6.053,46.2,22.234,5.885,9,7.642,18.369,4.822,25.7-2.1,5.465-6.49,9.217-12.689,10.849A27.106,27.106,0,0,1,111.425,382.563ZM86.9,322.327a26.881,26.881,0,0,0-6.847.846c-6.117,1.61-10.445,5.308-12.516,10.694-2.79,7.254-1.042,16.537,4.8,25.47,10.523,16.1,31.123,26.022,45.921,22.127,6.117-1.61,10.445-5.308,12.516-10.694,2.79-7.254,1.042-16.537-4.8-25.47C117,331.568,100.691,322.327,86.9,322.327Z" transform="translate(-65.987 -322.074)" fill="url(#linear-gradient)"/>
        </g>
      </g>
      <g id="Group_980" data-name="Group 980" transform="translate(4.087 8.8)">
        <g id="Group_979" data-name="Group 979">
          <path id="Path_742" data-name="Path 742" d="M107.2,382.475c-12.386,0-26.6-6.324-36.288-17.158-7.622-8.527-11.11-18.289-9.572-26.782A19.043,19.043,0,0,1,71.662,324.7c13.879-7.276,36.133-.932,49.607,14.142,7.622,8.527,11.11,18.289,9.571,26.782a19.043,19.043,0,0,1-10.322,13.832l-.062-.118.062.118A28.6,28.6,0,0,1,107.2,382.475ZM84.99,321.949a28.341,28.341,0,0,0-13.205,2.99A18.784,18.784,0,0,0,61.6,338.583c-1.524,8.412,1.941,18.092,9.508,26.557,9.634,10.778,23.774,17.073,36.081,17.073a28.339,28.339,0,0,0,13.205-2.99,18.785,18.785,0,0,0,10.184-13.644c1.524-8.412-1.941-18.092-9.508-26.558C111.437,328.244,97.3,321.949,84.99,321.949Z" transform="translate(-60.983 -321.687)" fill="url(#linear-gradient)"/>
        </g>
      </g>
      <g id="Group_982" data-name="Group 982" transform="translate(2.491 8.292)">
        <g id="Group_981" data-name="Group 981" transform="translate(0 0)">
          <path id="Path_743" data-name="Path 743" d="M102.513,382.177a50.075,50.075,0,0,1-31.154-11.566c-9.1-7.507-14.382-17.185-14.5-26.552a21.4,21.4,0,0,1,7.49-16.922c12.24-10.646,35.3-8.492,51.41,4.8,9.1,7.507,14.382,17.185,14.5,26.552a21.4,21.4,0,0,1-7.49,16.922C117.533,379.965,110.318,382.177,102.513,382.177ZM84.6,320.644c-7.738,0-14.887,2.191-20.074,6.7a21.131,21.131,0,0,0-7.4,16.709c.12,9.286,5.37,18.887,14.4,26.342,16.007,13.211,38.909,15.366,51.052,4.805l.091.1-.091-.1a21.13,21.13,0,0,0,7.395-16.709c-.12-9.286-5.37-18.887-14.4-26.342A49.8,49.8,0,0,0,84.6,320.644Z" transform="translate(-56.854 -320.372)" fill="url(#linear-gradient)"/>
        </g>
      </g>
      <g id="Group_984" data-name="Group 984" transform="translate(1.294 7.214)">
        <g id="Group_983" data-name="Group 983" transform="translate(0)">
          <path id="Path_744" data-name="Path 744" d="M97.816,381.545a48.065,48.065,0,0,1-24.265-6.753c-10.15-6-17.148-15.038-19.2-24.8a25.17,25.17,0,0,1,4.018-20.115c9.987-13.9,33.043-16.387,51.4-5.541,10.15,6,17.148,15.038,19.2,24.8a25.17,25.17,0,0,1-4.018,20.115l-.117-.084.117.084C119.15,377.322,108.947,381.545,97.816,381.545ZM85.5,317.869c-11.038,0-21.149,4.181-26.893,12.176a24.559,24.559,0,0,0-3.97,19.887c2.034,9.683,8.982,18.654,19.062,24.611a47.8,47.8,0,0,0,24.123,6.716c11.038,0,21.149-4.181,26.892-12.176a24.558,24.558,0,0,0,3.97-19.887c-2.034-9.683-8.982-18.654-19.063-24.611A47.789,47.789,0,0,0,85.5,317.869Z" transform="translate(-53.759 -317.583)" fill="url(#linear-gradient)"/>
        </g>
      </g>
      <g id="Group_986" data-name="Group 986" transform="translate(0.513 5.448)">
        <g id="Group_985" data-name="Group 985" transform="translate(0 0)">
          <path id="Path_745" data-name="Path 745" d="M93.8,380.511a45.355,45.355,0,0,1-16.342-3.081c-10.694-4.135-19.147-11.978-23.189-21.518a29.586,29.586,0,0,1-.284-23.243c7.152-16.906,29.316-24.34,49.409-16.571,10.694,4.135,19.146,11.978,23.189,21.518a29.588,29.588,0,0,1,.284,23.243C121.636,373.215,108.39,380.511,93.8,380.511Zm-6.752-67.193c-14.476,0-27.607,7.226-32.786,19.468a29.289,29.289,0,0,0,.284,23.008c4.011,9.465,12.4,17.249,23.021,21.355,19.942,7.711,41.934.35,49.023-16.407a29.29,29.29,0,0,0-.284-23.008c-4.011-9.465-12.4-17.249-23.021-21.355A45.075,45.075,0,0,0,87.044,313.318Z" transform="translate(-51.74 -313.017)" fill="url(#linear-gradient)"/>
        </g>
      </g>
      <g id="Group_988" data-name="Group 988" transform="translate(0.106 3.007)">
        <g id="Group_987" data-name="Group 987" transform="translate(0 0)">
          <path id="Path_746" data-name="Path 746" d="M91,379.08a42.451,42.451,0,0,1-8.107-.785,40.7,40.7,0,0,1-25.181-15.651,34.448,34.448,0,0,1-6.4-27.229c3.795-19.521,24.138-32.048,45.349-27.925s35.381,23.359,31.586,42.88l-.154-.03.154.03C124.936,367.379,109.062,379.08,91,379.08Zm-2.452-72.061c-17.916,0-33.656,11.6-36.933,28.456a34.135,34.135,0,0,0,6.349,26.983,40.394,40.394,0,0,0,24.989,15.529,42.194,42.194,0,0,0,8.047.78c17.917,0,33.656-11.6,36.934-28.456,3.761-19.351-10.3-38.422-31.338-42.512A42.166,42.166,0,0,0,88.549,307.018Z" transform="translate(-50.686 -306.705)" fill="url(#linear-gradient)"/>
        </g>
      </g>
      <g id="Group_990" data-name="Group 990">
        <g id="Group_989" data-name="Group 989">
          <path id="Path_747" data-name="Path 747" d="M89.607,377.318A39.194,39.194,0,1,1,128.8,338.123,39.239,39.239,0,0,1,89.607,377.318Zm0-78.062a38.867,38.867,0,1,0,38.867,38.867A38.912,38.912,0,0,0,89.607,299.256Z" transform="translate(-50.413 -298.929)" fill="url(#linear-gradient)"/>
        </g>
      </g>
    </g>
  </g>
</svg>
