<svg xmlns="http://www.w3.org/2000/svg" xmlns:xlink="http://www.w3.org/1999/xlink" width="80" height="80" viewBox="0 0 80 80">
  <defs>
    <clipPath id="clip-path">
      <rect id="Rectangle_52" data-name="Rectangle 52" width="80" height="80" fill="#fff" stroke="#707070" stroke-width="1"/>
    </clipPath>
    <linearGradient id="linear-gradient" y1="0.211" x2="0.908" y2="0.881" gradientUnits="objectBoundingBox">
      <stop offset="0" stop-color="#8fc232"/>
      <stop offset="1" stop-color="#2e484f"/>
    </linearGradient>
  </defs>
  <g id="Mask_Group_4" data-name="Mask Group 4" clip-path="url(#clip-path)">
    <g id="Group_111" data-name="Group 111" transform="matrix(0.966, -0.259, 0.259, 0.966, -6.449, 17.173)">
      <g id="Group_70" data-name="Group 70" transform="translate(16.492 5.196)">
        <g id="Group_69" data-name="Group 69" transform="translate(0 0)">
          <path id="Path_157" data-name="Path 157" d="M1.906,57.9a1.884,1.884,0,0,1-1.147-.363A2.063,2.063,0,0,1,0,55.757L1.066,16.364a4.407,4.407,0,0,1,2.862-3.778L42.14.143a2.144,2.144,0,0,1,1.994.22,2.063,2.063,0,0,1,.757,1.778L43.826,41.534a4.407,4.407,0,0,1-2.862,3.778L2.752,57.755A2.747,2.747,0,0,1,1.906,57.9ZM42.986.136a2.6,2.6,0,0,0-.8.136L3.97,12.715A4.261,4.261,0,0,0,1.2,16.367L.137,55.761a1.933,1.933,0,0,0,.7,1.666,2.015,2.015,0,0,0,1.871.2L40.922,45.183A4.261,4.261,0,0,0,43.69,41.53L44.755,2.137l.068,0-.068,0a1.931,1.931,0,0,0-.7-1.665A1.753,1.753,0,0,0,42.986.136Z" fill="url(#linear-gradient)"/>
        </g>
      </g>
      <g id="Group_72" data-name="Group 72" transform="translate(14.222 6.252)">
        <g id="Group_71" data-name="Group 71" transform="translate(0 0)">
          <path id="Path_158" data-name="Path 158" d="M1.942,55.786a1.918,1.918,0,0,1-1.3-.462,2.151,2.151,0,0,1-.625-1.916L4.514,13.047A4.5,4.5,0,0,1,7.694,9.425L46.845.079a2.112,2.112,0,0,1,1.943.382,2.15,2.15,0,0,1,.625,1.916L44.919,42.739a4.5,4.5,0,0,1-3.181,3.622L2.588,55.706A2.789,2.789,0,0,1,1.942,55.786ZM47.49.138a2.649,2.649,0,0,0-.613.076L7.726,9.559a4.347,4.347,0,0,0-3.075,3.5L.156,53.424a2.017,2.017,0,0,0,.579,1.8,1.979,1.979,0,0,0,1.82.351l39.151-9.345a4.347,4.347,0,0,0,3.075-3.5L49.276,2.362A2.017,2.017,0,0,0,48.7.565,1.784,1.784,0,0,0,47.49.138Z" fill="url(#linear-gradient)"/>
        </g>
      </g>
      <g id="Group_74" data-name="Group 74" transform="translate(12.05 7.537)">
        <g id="Group_73" data-name="Group 73" transform="translate(0)">
          <path id="Path_159" data-name="Path 159" d="M1.992,53.217a1.96,1.96,0,0,1-1.453-.575,2.247,2.247,0,0,1-.48-2.048l8-41.048A4.559,4.559,0,0,1,11.54,6.114L51.356.033a2.086,2.086,0,0,1,1.88.541,2.247,2.247,0,0,1,.48,2.048l-8,41.048A4.558,4.558,0,0,1,42.236,47.1L2.42,53.184A2.864,2.864,0,0,1,1.992,53.217ZM51.782.14a2.72,2.72,0,0,0-.405.031L11.561,6.252A4.408,4.408,0,0,0,8.192,9.574L.2,50.622A2.114,2.114,0,0,0,.64,52.546a1.951,1.951,0,0,0,1.758.5l39.816-6.08a4.408,4.408,0,0,0,3.368-3.322l8-41.048.069.013L53.578,2.6A2.114,2.114,0,0,0,53.135.672,1.823,1.823,0,0,0,51.782.14Z" fill="url(#linear-gradient)"/>
        </g>
      </g>
      <g id="Group_76" data-name="Group 76" transform="translate(10.002 9.046)">
        <g id="Group_75" data-name="Group 75" transform="translate(0 0)">
          <path id="Path_160" data-name="Path 160" d="M2.055,50.2A2.014,2.014,0,0,1,.44,49.5a2.389,2.389,0,0,1-.322-2.172L11.66,5.886a4.6,4.6,0,0,1,3.772-3.213L55.627.006a2.068,2.068,0,0,1,1.806.7,2.389,2.389,0,0,1,.322,2.172L46.211,44.313a4.6,4.6,0,0,1-3.772,3.213L2.245,50.193Q2.149,50.2,2.055,50.2ZM55.817.142c-.059,0-.12,0-.18.006L15.442,2.815A4.444,4.444,0,0,0,11.8,5.924L.255,47.362A2.249,2.249,0,0,0,.55,49.406a1.932,1.932,0,0,0,1.686.645L42.43,47.384a4.444,4.444,0,0,0,3.644-3.109L57.617,2.837A2.249,2.249,0,0,0,57.322.793,1.876,1.876,0,0,0,55.817.142Z" fill="url(#linear-gradient)"/>
        </g>
      </g>
      <g id="Group_78" data-name="Group 78" transform="translate(8.091 9.9)">
        <g id="Group_77" data-name="Group 77" transform="translate(0)">
          <path id="Path_161" data-name="Path 161" d="M42.407,48.49h-.063L2.07,47.616a2.057,2.057,0,0,1-1.719-.85A2.505,2.505,0,0,1,.2,44.481L15.31,2.962A4.624,4.624,0,0,1,19.286,0h.063L59.623.874a2.057,2.057,0,0,1,1.719.85,2.505,2.505,0,0,1,.15,2.286l-.068-.025.068.025-15.11,41.52A4.624,4.624,0,0,1,42.407,48.49ZM19.285.145a4.469,4.469,0,0,0-3.84,2.866L.336,44.531a2.366,2.366,0,0,0,.133,2.154,1.917,1.917,0,0,0,1.6.787l40.274.873a4.447,4.447,0,0,0,3.9-2.866L61.357,3.959A2.365,2.365,0,0,0,61.224,1.8a1.917,1.917,0,0,0-1.6-.787L19.346.145Z" fill="url(#linear-gradient)"/>
        </g>
      </g>
      <g id="Group_80" data-name="Group 80" transform="translate(6.34 8.196)">
        <g id="Group_79" data-name="Group 79" transform="translate(0 0)">
          <path id="Path_162" data-name="Path 162" d="M42.267,51.9a2.915,2.915,0,0,1-.329-.018L1.893,47.365a2.059,2.059,0,0,1-1.624-1A2.636,2.636,0,0,1,.3,43.979L18.974,2.7A4.592,4.592,0,0,1,23.257.018L63.3,4.533a2.06,2.06,0,0,1,1.624,1,2.635,2.635,0,0,1-.034,2.387l-.067-.03.067.03L46.221,49.2A4.69,4.69,0,0,1,42.267,51.9ZM22.925.146a4.533,4.533,0,0,0-3.818,2.61L.436,44.04A2.493,2.493,0,0,0,.4,46.294a1.918,1.918,0,0,0,1.513.926l40.045,4.515a4.435,4.435,0,0,0,4.133-2.593L64.759,7.858A2.491,2.491,0,0,0,64.8,5.6a1.918,1.918,0,0,0-1.513-.926L23.24.164A2.769,2.769,0,0,0,22.925.146Z" fill="url(#linear-gradient)"/>
        </g>
      </g>
      <g id="Group_82" data-name="Group 82" transform="translate(4.768 6.615)">
        <g id="Group_81" data-name="Group 81" transform="translate(0 0)">
          <path id="Path_163" data-name="Path 163" d="M41.821,55.06A2.976,2.976,0,0,1,41.215,55l-39.5-8.235A2.076,2.076,0,0,1,.2,45.619a2.769,2.769,0,0,1,.229-2.473l22.2-40.721a4.554,4.554,0,0,1,4.5-2.365L66.625,8.3A2.076,2.076,0,0,1,68.144,9.44a2.769,2.769,0,0,1-.229,2.473l-22.2,40.721A4.741,4.741,0,0,1,41.821,55.06ZM26.515.148A4.581,4.581,0,0,0,22.754,2.5L.556,43.218a2.622,2.622,0,0,0-.225,2.339,1.929,1.929,0,0,0,1.415,1.062l39.5,8.235a4.4,4.4,0,0,0,4.341-2.291l22.2-40.721.065.036-.065-.036A2.622,2.622,0,0,0,68.009,9.5a1.93,1.93,0,0,0-1.415-1.062L27.1.206A2.83,2.83,0,0,0,26.515.148Z" fill="url(#linear-gradient)"/>
        </g>
      </g>
      <g id="Group_84" data-name="Group 84" transform="translate(3.392 5.172)">
        <g id="Group_83" data-name="Group 83" transform="translate(0 0)">
          <path id="Path_164" data-name="Path 164" d="M41.064,57.945a3.009,3.009,0,0,1-.9-.13L1.538,45.809A2.1,2.1,0,0,1,.132,44.521a2.911,2.911,0,0,1,.435-2.541L26.23,2.155A4.493,4.493,0,0,1,30.924.13L69.555,12.136a2.1,2.1,0,0,1,1.406,1.288,2.909,2.909,0,0,1-.435,2.541L44.863,55.79A4.771,4.771,0,0,1,41.064,57.945ZM30.023.15a4.612,4.612,0,0,0-3.666,2.087L.694,42.063a2.762,2.762,0,0,0-.42,2.407,1.955,1.955,0,0,0,1.308,1.2L40.214,57.671a4.336,4.336,0,0,0,4.522-1.963L70.4,15.883l.064.041-.064-.041a2.761,2.761,0,0,0,.42-2.407,1.955,1.955,0,0,0-1.308-1.2L30.879.275A2.88,2.88,0,0,0,30.023.15Z" fill="url(#linear-gradient)"/>
        </g>
      </g>
      <g id="Group_86" data-name="Group 86" transform="translate(2.229 3.882)">
        <g id="Group_85" data-name="Group 85" transform="translate(0 0)">
          <path id="Path_165" data-name="Path 165" d="M39.994,60.527a3.068,3.068,0,0,1-1.2-.228L1.362,44.5A2.148,2.148,0,0,1,.079,43.069a3.054,3.054,0,0,1,.649-2.588l29.036-38.6A4.42,4.42,0,0,1,34.619.228l37.437,15.8a2.147,2.147,0,0,1,1.283,1.428,3.054,3.054,0,0,1-.649,2.588h0L43.655,58.64A4.784,4.784,0,0,1,39.994,60.527ZM33.419.152a4.621,4.621,0,0,0-3.533,1.827L.851,40.574a2.9,2.9,0,0,0-.624,2.456,2,2,0,0,0,1.194,1.327l37.438,15.8a4.259,4.259,0,0,0,4.673-1.609l29.036-38.6.061.046-.061-.046a2.9,2.9,0,0,0,.623-2.456A2,2,0,0,0,72,16.171L34.56.37A2.923,2.923,0,0,0,33.419.152Z" fill="url(#linear-gradient)"/>
        </g>
      </g>
      <g id="Group_88" data-name="Group 88" transform="translate(1.295 2.756)">
        <g id="Group_87" data-name="Group 87" transform="translate(0 0)">
          <path id="Path_166" data-name="Path 166" d="M38.608,62.779a3.126,3.126,0,0,1-1.5-.357L1.188,42.83A2.208,2.208,0,0,1,.037,41.264a3.2,3.2,0,0,1,.869-2.612L33.2,1.624A4.334,4.334,0,0,1,38.18.357L74.1,19.949a2.208,2.208,0,0,1,1.151,1.566,3.2,3.2,0,0,1-.869,2.611l-.059-.051.059.051L42.091,61.155A4.777,4.777,0,0,1,38.608,62.779ZM36.674.154a4.615,4.615,0,0,0-3.36,1.572L1.024,38.755a3.046,3.046,0,0,0-.833,2.482,2.056,2.056,0,0,0,1.072,1.457L37.181,62.285a4.172,4.172,0,0,0,4.792-1.232L74.263,24.024a3.046,3.046,0,0,0,.833-2.482,2.056,2.056,0,0,0-1.072-1.457L38.106.494A2.981,2.981,0,0,0,36.674.154Z" fill="url(#linear-gradient)"/>
        </g>
      </g>
      <g id="Group_90" data-name="Group 90" transform="translate(0.604 1.807)">
        <g id="Group_89" data-name="Group 89" transform="translate(0 0)">
          <path id="Path_167" data-name="Path 167" d="M36.907,64.676a3.194,3.194,0,0,1-1.815-.517L1.019,40.81a2.287,2.287,0,0,1-1.009-1.7A3.34,3.34,0,0,1,1.1,36.5L36.5,1.371c1.424-1.414,3.7-1.8,5.079-.854L75.649,23.865a2.287,2.287,0,0,1,1.009,1.7,3.34,3.34,0,0,1-1.092,2.61L40.172,63.306A4.748,4.748,0,0,1,36.907,64.676ZM39.759.156a4.587,4.587,0,0,0-3.151,1.327L1.214,36.61A3.182,3.182,0,0,0,.168,39.093a2.132,2.132,0,0,0,.94,1.587L35.182,64.029c1.317.9,3.505.528,4.878-.835L75.454,28.066l.056.056-.056-.056A3.182,3.182,0,0,0,76.5,25.583,2.132,2.132,0,0,0,75.56,24L41.486.648A3.041,3.041,0,0,0,39.759.156Z" fill="url(#linear-gradient)"/>
        </g>
      </g>
      <g id="Group_92" data-name="Group 92" transform="translate(0.169 1.047)">
        <g id="Group_91" data-name="Group 91" transform="translate(0 0)">
          <path id="Path_168" data-name="Path 168" d="M34.891,66.2a3.261,3.261,0,0,1-2.126-.711L.856,38.445A2.384,2.384,0,0,1,0,36.608a3.475,3.475,0,0,1,1.315-2.581l38.32-32.9c1.543-1.325,3.848-1.513,5.138-.42l31.909,27.04a2.384,2.384,0,0,1,.856,1.838,3.474,3.474,0,0,1-1.315,2.58L37.9,65.065A4.7,4.7,0,0,1,34.891,66.2ZM42.647.159A4.54,4.54,0,0,0,39.74,1.253L1.42,34.149A3.315,3.315,0,0,0,.161,36.607a2.226,2.226,0,0,0,.8,1.716L32.869,65.363c1.232,1.044,3.443.856,4.929-.42l38.321-32.9.052.061-.052-.061a3.315,3.315,0,0,0,1.259-2.458,2.225,2.225,0,0,0-.8-1.716L44.669.833A3.1,3.1,0,0,0,42.647.159Z" fill="url(#linear-gradient)"/>
        </g>
      </g>
      <g id="Group_94" data-name="Group 94" transform="translate(0 0.486)">
        <g id="Group_93" data-name="Group 93" transform="translate(0 0)">
          <path id="Path_169" data-name="Path 169" d="M32.562,67.318a3.331,3.331,0,0,1-2.43-.939L.7,35.742a2.5,2.5,0,0,1-.692-1.97,3.6,3.6,0,0,1,1.534-2.523L42.585.908C44.239-.314,46.553-.3,47.744.938L77.175,31.576a2.5,2.5,0,0,1,.692,1.969,3.6,3.6,0,0,1-1.534,2.523L76.284,36l.048.066L35.29,66.41A4.638,4.638,0,0,1,32.562,67.318ZM45.314.161a4.475,4.475,0,0,0-2.632.878L1.641,31.38A3.441,3.441,0,0,0,.172,33.786a2.339,2.339,0,0,0,.647,1.843L30.25,66.267c1.136,1.182,3.353,1.188,4.944.012L76.235,35.938A3.442,3.442,0,0,0,77.7,33.532a2.339,2.339,0,0,0-.647-1.843L47.626,1.051A3.168,3.168,0,0,0,45.314.161Z" fill="url(#linear-gradient)"/>
        </g>
      </g>
      <g id="Group_96" data-name="Group 96" transform="translate(0.108 0.134)">
        <g id="Group_95" data-name="Group 95" transform="translate(0 0)">
          <path id="Path_170" data-name="Path 170" d="M29.925,68.022a3.4,3.4,0,0,1-2.721-1.2L.556,32.713a2.633,2.633,0,0,1-.514-2.1,3.714,3.714,0,0,1,1.745-2.436L45.317.705C47.072-.4,49.378-.181,50.456,1.2L77.105,35.309a2.634,2.634,0,0,1,.514,2.1,3.712,3.712,0,0,1-1.745,2.436L32.344,67.317A4.561,4.561,0,0,1,29.925,68.022ZM47.738.164a4.4,4.4,0,0,0-2.333.681L1.875,28.318a3.549,3.549,0,0,0-1.67,2.324,2.47,2.47,0,0,0,.481,1.969L27.335,66.72a3.794,3.794,0,0,0,4.92.456L75.786,39.7l.044.07-.044-.07a3.549,3.549,0,0,0,1.67-2.324,2.47,2.47,0,0,0-.481-1.969L50.326,1.3A3.233,3.233,0,0,0,47.738.164Z" fill="url(#linear-gradient)"/>
        </g>
      </g>
      <g id="Group_98" data-name="Group 98" transform="translate(0.498 0)">
        <g id="Group_97" data-name="Group 97" transform="translate(0)">
          <path id="Path_171" data-name="Path 171" d="M26.986,68.29A3.469,3.469,0,0,1,24,66.8L.423,29.371A2.783,2.783,0,0,1,.1,27.147a3.811,3.811,0,0,1,1.944-2.32L47.8.524a3.886,3.886,0,0,1,5.08.97L76.458,38.919a2.783,2.783,0,0,1,.322,2.224,3.811,3.811,0,0,1-1.944,2.32l-.039-.074.039.074-45.759,24.3A4.472,4.472,0,0,1,26.986,68.29ZM49.9.167a4.311,4.311,0,0,0-2.015.506L2.123,24.976A3.643,3.643,0,0,0,.263,27.191a2.618,2.618,0,0,0,.3,2.091L24.14,66.707A3.717,3.717,0,0,0,29,67.618l45.759-24.3A3.643,3.643,0,0,0,76.617,41.1a2.617,2.617,0,0,0-.3-2.091L52.741,1.584A3.3,3.3,0,0,0,49.9.167Z" fill="url(#linear-gradient)"/>
        </g>
      </g>
      <g id="Group_100" data-name="Group 100" transform="translate(1.176 0.091)">
        <g id="Group_99" data-name="Group 99" transform="translate(0 0)">
          <path id="Path_172" data-name="Path 172" d="M23.755,68.108a3.532,3.532,0,0,1-3.228-1.821L.3,25.734a2.947,2.947,0,0,1-.116-2.342,3.883,3.883,0,0,1,2.128-2.176L50.018.368A3.825,3.825,0,0,1,55,1.821L75.22,42.374a2.947,2.947,0,0,1,.116,2.342,3.883,3.883,0,0,1-2.128,2.176l-.034-.078.034.078L25.506,67.74A4.374,4.374,0,0,1,23.755,68.108ZM51.771.17a4.211,4.211,0,0,0-1.685.354L2.384,21.373A3.711,3.711,0,0,0,.349,23.45a2.775,2.775,0,0,0,.108,2.207L20.679,66.211a3.654,3.654,0,0,0,4.758,1.372l47.7-20.848a3.712,3.712,0,0,0,2.035-2.078,2.775,2.775,0,0,0-.108-2.207L54.845,1.9A3.36,3.36,0,0,0,51.771.17Z" fill="url(#linear-gradient)"/>
        </g>
      </g>
      <g id="Group_102" data-name="Group 102" transform="translate(2.145 0.414)">
        <g id="Group_101" data-name="Group 101" transform="translate(0)">
          <path id="Path_173" data-name="Path 173" d="M20.247,67.461a3.6,3.6,0,0,1-3.434-2.177L.2,21.819a3.119,3.119,0,0,1,.106-2.45A3.931,3.931,0,0,1,2.6,17.363L51.938.238a3.783,3.783,0,0,1,4.836,1.939L73.385,45.643a3.12,3.12,0,0,1-.106,2.45A3.931,3.931,0,0,1,70.987,50.1l-.029-.082.029.082L21.649,67.223A4.267,4.267,0,0,1,20.247,67.461ZM53.342.173A4.117,4.117,0,0,0,51.995.4L2.656,17.527A3.758,3.758,0,0,0,.464,19.442a2.949,2.949,0,0,0-.1,2.315L16.975,65.223a3.609,3.609,0,0,0,4.617,1.837L70.931,49.935a3.758,3.758,0,0,0,2.192-1.915,2.95,2.95,0,0,0,.1-2.315L56.612,2.238A3.42,3.42,0,0,0,53.342.173Z" fill="url(#linear-gradient)"/>
        </g>
      </g>
      <g id="Group_104" data-name="Group 104" transform="translate(3.405 0.975)">
        <g id="Group_103" data-name="Group 103" transform="translate(0 0)">
          <path id="Path_174" data-name="Path 174" d="M16.478,66.34a3.656,3.656,0,0,1-3.6-2.56L.117,17.647A3.3,3.3,0,0,1,.46,15.1,3.958,3.958,0,0,1,2.9,13.289L53.538.135A3.762,3.762,0,0,1,58.189,2.56L70.95,48.693a3.3,3.3,0,0,1-.343,2.546,3.958,3.958,0,0,1-2.436,1.812l-.022-.085.022.085L17.528,66.205A4.187,4.187,0,0,1,16.478,66.34ZM54.59.176a4.008,4.008,0,0,0-1.007.129L2.939,13.46A3.778,3.778,0,0,0,.612,15.19,3.126,3.126,0,0,0,.287,17.6l12.76,46.132a3.586,3.586,0,0,0,4.437,2.3L68.127,52.88a3.778,3.778,0,0,0,2.328-1.73,3.125,3.125,0,0,0,.325-2.41L58.02,2.607A3.479,3.479,0,0,0,54.59.176Z" fill="url(#linear-gradient)"/>
        </g>
      </g>
      <g id="Group_106" data-name="Group 106" transform="translate(4.954 1.777)">
        <g id="Group_105" data-name="Group 105" transform="translate(0)">
          <path id="Path_175" data-name="Path 175" d="M12.47,64.737a3.719,3.719,0,0,1-3.726-2.969L.054,13.244a3.48,3.48,0,0,1,.593-2.625A3.9,3.9,0,0,1,3.2,9.02L54.8.061a3.764,3.764,0,0,1,4.424,2.908l8.691,48.525a3.483,3.483,0,0,1-.593,2.625,3.9,3.9,0,0,1-2.555,1.6l-51.6,8.959A4.108,4.108,0,0,1,12.47,64.737ZM55.5.178a3.9,3.9,0,0,0-.668.058L3.233,9.2a3.722,3.722,0,0,0-2.44,1.525A3.3,3.3,0,0,0,.23,13.212L8.921,61.737A3.587,3.587,0,0,0,13.138,64.5l51.6-8.959.015.088-.015-.088a3.723,3.723,0,0,0,2.439-1.525,3.3,3.3,0,0,0,.563-2.491L59.047,3A3.54,3.54,0,0,0,55.5.178Z" fill="url(#linear-gradient)"/>
        </g>
      </g>
      <g id="Group_108" data-name="Group 108" transform="translate(6.788 2.821)">
        <g id="Group_107" data-name="Group 107" transform="translate(0 0)">
          <path id="Path_176" data-name="Path 176" d="M8.246,62.648A3.866,3.866,0,0,1,5.8,61.782,3.653,3.653,0,0,1,4.443,59.25L.014,8.634A3.653,3.653,0,0,1,.907,5.905,3.878,3.878,0,0,1,3.519,4.581L55.7.015a3.882,3.882,0,0,1,2.8.851A3.655,3.655,0,0,1,59.856,3.4l4.428,50.616a3.8,3.8,0,0,1-3.505,4.054h0L8.6,62.633C8.48,62.643,8.363,62.648,8.246,62.648ZM56.052.181q-.167,0-.336.015L3.535,4.761A3.7,3.7,0,0,0,1.044,6.024,3.475,3.475,0,0,0,.195,8.618L4.623,59.234A3.475,3.475,0,0,0,5.91,61.641a3.7,3.7,0,0,0,2.672.811l52.182-4.565A3.613,3.613,0,0,0,64.1,54.03L59.676,3.414a3.472,3.472,0,0,0-1.287-2.407A3.683,3.683,0,0,0,56.052.181Z" fill="url(#linear-gradient)"/>
        </g>
      </g>
      <g id="Group_110" data-name="Group 110" transform="translate(8.901 4.108)">
        <g id="Group_109" data-name="Group 109">
          <path id="Path_177" data-name="Path 177" d="M56.227,60.073H3.847A3.851,3.851,0,0,1,0,56.227V3.846A3.851,3.851,0,0,1,3.847,0H56.227a3.851,3.851,0,0,1,3.846,3.846V56.227A3.851,3.851,0,0,1,56.227,60.073ZM3.847.184A3.667,3.667,0,0,0,.184,3.846V56.227a3.667,3.667,0,0,0,3.662,3.662H56.227a3.666,3.666,0,0,0,3.662-3.662V3.846A3.666,3.666,0,0,0,56.227.184Z" fill="url(#linear-gradient)"/>
        </g>
      </g>
    </g>
  </g>
</svg>
