<svg xmlns="http://www.w3.org/2000/svg" xmlns:xlink="http://www.w3.org/1999/xlink" width="23" height="23" viewBox="0 0 23 23">
  <defs>
    <clipPath id="clip-path">
      <rect id="Rectangle_117" data-name="Rectangle 117" width="23" height="23" fill="#ffc150"/>
    </clipPath>
  </defs>
  <g id="Mask_Group_33" data-name="Mask Group 33" clip-path="url(#clip-path)">
    <path id="Icon_ionic-ios-star" data-name="Icon ionic-ios-star" d="M24.606,10.844h-7.63l-2.319-6.92a.84.84,0,0,0-1.577,0l-2.319,6.92H3.08a.832.832,0,0,0-.83.83.61.61,0,0,0,.016.14.8.8,0,0,0,.348.586L8.884,16.82l-2.407,7a.832.832,0,0,0,.285.934.8.8,0,0,0,.467.2,1.017,1.017,0,0,0,.519-.187L13.869,20.4l6.121,4.362a.972.972,0,0,0,.519.187.745.745,0,0,0,.462-.2.822.822,0,0,0,.285-.934l-2.407-7,6.219-4.461.15-.13a.87.87,0,0,0,.27-.555A.878.878,0,0,0,24.606,10.844Z" transform="translate(-2.077 -2.721)" fill="#ffc150"/>
  </g>
</svg>
